<svg xmlns="http://www.w3.org/2000/svg" width="1200" height="630" viewBox="0 0 1200 630">
  <defs>
    <pattern id="grid" width="48" height="48" patternUnits="userSpaceOnUse">
      <path d="M 48 0 L 0 0 0 48" fill="none" stroke="#d9d5c8" stroke-width="1" opacity="0.7"/>
    </pattern>
    <filter id="shadow" x="-20%" y="-20%" width="140%" height="150%">
      <feDropShadow dx="0" dy="28" stdDeviation="30" flood-color="#141922" flood-opacity="0.14"/>
      <feDropShadow dx="0" dy="10" stdDeviation="16" flood-color="#141922" flood-opacity="0.08"/>
    </filter>
  </defs>
  <rect width="1200" height="630" fill="#f7f5ef"/>
  <rect width="1200" height="630" fill="url(#grid)"/>
  <rect x="64" y="54" width="1072" height="522" rx="10" fill="#ffffff" stroke="#d9d5c8" filter="url(#shadow)"/>
  <rect x="64" y="558" width="268" height="18" fill="#2e5e75"/>
  <rect x="332" y="558" width="268" height="18" fill="#b25f2a"/>
  <rect x="600" y="558" width="268" height="18" fill="#596b3f"/>
  <rect x="868" y="558" width="268" height="18" fill="#d9a23a"/>
  <text x="92" y="110" font-family="Arial, sans-serif" font-size="19" font-weight="800" fill="#b25f2a">СТРОИТЕЛЬСТВО · ДЕВЕЛОПМЕНТ · ТЕРРИТОРИИ · DIGITAL</text>
  <text x="92" y="235" font-family="Georgia, 'Times New Roman', serif" font-size="84" font-weight="500" fill="#141922">
    <tspan x="92" dy="0">Сергей</tspan>
    <tspan x="92" dy="92">Месяцев</tspan>
  </text>
  <text x="92" y="410" font-family="Arial, sans-serif" font-size="30" font-weight="700" fill="#141922">
    <tspan x="92" dy="0">Партнёр по стратегическому</tspan>
    <tspan x="92" dy="42">развитию девелоперских</tspan>
    <tspan x="92" dy="42">и строительных компаний</tspan>
  </text>
  <g transform="translate(782 112)">
    <rect width="274" height="330" rx="10" fill="#19354c"/>
    <text x="28" y="58" font-family="Arial, sans-serif" font-size="15" font-weight="800" fill="#d9a23a">4 ВХОДА НА САЙТ</text>
    <g font-family="Arial, sans-serif" font-size="22" font-weight="700" fill="#f7f5ef">
      <text x="28" y="112">Контракты</text>
      <text x="28" y="166">Земля и КРТ</text>
      <text x="28" y="220">Элемент Контроль</text>
      <text x="28" y="274">AI-автоматизация</text>
    </g>
    <g stroke="#d9a23a" stroke-width="3">
      <line x1="28" y1="128" x2="246" y2="128"/>
      <line x1="28" y1="182" x2="246" y2="182"/>
      <line x1="28" y1="236" x2="246" y2="236"/>
      <line x1="28" y1="290" x2="246" y2="290"/>
    </g>
  </g>
  <text x="92" y="530" font-family="Arial, sans-serif" font-size="22" font-weight="800" fill="#2e5e75">sergey-mesyatsev.tech · @sergeymesyatsev</text>
</svg>
